<svg id="Component_33_1" data-name="Component 33 – 1" xmlns="http://www.w3.org/2000/svg" width="2032.815" height="474.61" viewBox="0 0 2032.815 474.61">
  <path id="Path_200" data-name="Path 200" d="M54.6-223.132c21.112,0,35.308-13.832,35.308-32.76,0-17.472-14.2-30.576-35.308-30.576S19.292-272.636,19.292-254.8,33.488-223.132,54.6-223.132ZM26.208,0H82.992V-195.832H26.208ZM254.8-198.744c-26.572,0-49.5,9.1-64.792,25.844v-22.932H135.772V0h56.784V-96.824c0-36.036,19.656-52.78,46.956-52.78,25.116,0,39.676,14.56,39.676,46.228V0h56.784V-112.112C335.972-171.808,301.028-198.744,254.8-198.744ZM498.316-49.5c-6.188,4.732-14.56,7.28-22.932,7.28C460.1-42.224,451-51.324,451-68.068v-79.716h48.776v-43.68H451v-47.684H394.212v47.684H364v43.68h30.212V-67.34c0,46.592,26.936,70.252,73.164,70.252,17.472,0,34.58-4,46.228-12.376Zm232.96-47.684c0-62.972-44.408-101.556-101.92-101.556-59.7,0-104.468,42.224-104.468,100.828,0,58.24,44.044,100.828,111.748,100.828,35.308,0,62.608-10.92,80.808-31.668l-30.212-32.76c-13.468,12.74-28.392,18.928-49.14,18.928-29.848,0-50.6-14.924-56.056-39.312H730.184C730.548-86.632,731.276-92.82,731.276-97.188Zm-101.556-58.6c25.48,0,44.044,16.016,48.048,40.768h-96.46C585.312-140.14,603.876-155.792,629.72-155.792Zm193.648-14.2v-25.844H769.132V0h56.784V-92.456c0-37.492,20.748-54.6,52.052-54.6,4.368,0,8.008.364,12.74.728v-52.416C860.5-198.744,837.2-188.916,823.368-169.988Z" transform="translate(-19.292 471.698)"/>
  <path id="Path_201" data-name="Path 201" d="M92.092,2.912c58.6,0,92.456-25.844,92.456-62.244,0-77.168-118.3-44.772-118.3-78.26,0-10.192,10.92-18.2,36.4-18.2a112.459,112.459,0,0,1,56.42,14.56L178-181.636c-18.564-10.92-48.412-17.108-75.348-17.108-57.148,0-90.636,26.208-90.636,63.336,0,78.26,118.3,45.5,118.3,77.532,0,10.92-9.828,17.836-36.036,17.836-24.024,0-50.6-7.644-68.068-18.928L7.28-18.2C25.48-6.188,58.968,2.912,92.092,2.912ZM247.884-223.132c21.112,0,35.308-13.832,35.308-32.76,0-17.472-14.2-30.576-35.308-30.576s-35.308,13.832-35.308,31.668S226.772-223.132,247.884-223.132ZM219.492,0h56.784V-195.832H219.492ZM444.808-198.744c-24.388,0-44.408,7.644-58.968,23.66v-95H329.056V0h54.236V-22.568c14.2,17.108,35.308,25.48,61.516,25.48,54.964,0,97.552-39.312,97.552-100.828S499.772-198.744,444.808-198.744ZM434.98-43.68c-28.392,0-49.868-20.384-49.868-54.236s21.476-54.236,49.868-54.236,49.868,20.384,49.868,54.236S463.372-43.68,434.98-43.68ZM772.044-97.188c0-62.972-44.408-101.556-101.92-101.556-59.7,0-104.468,42.224-104.468,100.828C565.656-39.676,609.7,2.912,677.4,2.912c35.308,0,62.608-10.92,80.808-31.668L728-61.516c-13.468,12.74-28.392,18.928-49.14,18.928-29.848,0-50.6-14.924-56.056-39.312H770.952C771.316-86.632,772.044-92.82,772.044-97.188Zm-101.556-58.6c25.48,0,44.044,16.016,48.048,40.768h-96.46C626.08-140.14,644.644-155.792,670.488-155.792Zm193.648-14.2v-25.844H809.9V0h56.784V-92.456c0-37.492,20.748-54.6,52.052-54.6,4.368,0,8.008.364,12.74.728v-52.416C901.264-198.744,877.968-188.916,864.136-169.988Z" transform="translate(904.708 471.698)" fill="#0aa601"/>
  <g id="hat" transform="translate(1653.471 419.813)">
    <path id="Path_196" data-name="Path 196" d="M167.913-419.032a164.533,164.533,0,0,0-16.589,2.822C81.378-400.391,27.251-347.376,9.722-277.6c-3.848,15.306-5.045,28.9-4.446,51.562.257,10.176.941,21.035,1.454,24.113,1.2,7.183,6.67,28.816,7.7,30.783,1.625,2.993,5.473,3.677,17.358,3.164,12.912-.513,20.266-1.967,30.356-5.644,10.774-4.019,10.86-3.933,20.522,5.3,9.149,8.722,11.8,10,20.608,10,8.038,0,13.083-3.506,14.28-9.919.77-4.361-.77-7.183-7.439-13.083-6.413-5.815-13.6-16.674-13.6-20.693a6.752,6.752,0,0,1,6.67-6.755c4.7,0,7.781,2.394,13.681,10.347,7.183,9.748,11.031,11.8,18.726,9.833,2.651-.6,3.164-.257,12.057,8.209,9.491,8.893,15.99,13.51,22.574,15.9,6.328,2.223,18.812,2.309,32.664.171l12.228-1.967,5.3,1.881c6.584,2.223,9.064,2.223,15.135,0,4.446-1.71,5.387-1.8,10.6-.855a62.112,62.112,0,0,0,12.057.855c5.045-.086,6.242.085,5.986,1.026-.171.684-1.026,5.216-1.967,10.176-2.138,11.2-3.335,14.023-11.715,25.909-12.228,17.529-20.608,30.612-20.608,32.322a9,9,0,0,0,5.216,7.61c2.138.941,3.677.941,7.439.171,7.268-1.539,11.031-3.762,20.266-12.228,10-9.235,13.51-11.629,21.121-14.793,6.328-2.651,7.439-3.677,9.834-8.636,1.368-2.993,2.052-3.591,5.815-4.532,7.7-1.881,20.779-2.651,31.382-1.71a81.4,81.4,0,0,0,13.083.342c6.841-1.283,11.458-8.209,21.634-32.237,16.418-38.821,18.213-91.152,4.361-131.427-16.418-47.714-49.424-85.68-94.06-108-20.009-10-42.669-17.016-60.369-18.726C205.109-420.058,178.174-420.058,167.913-419.032Zm58.146,16.5c62.764,14.365,109.964,56.265,130.059,115.351,6.328,18.726,8.551,35.828,7.781,61.31-.684,23.515-3.164,36.512-11.031,56.436-5.131,13.083-12.057,26.166-13.681,25.824-.6-.171-6.5-.513-13.083-.77-25.4-1.026-43.353,4.275-45.149,13.168-.428,1.967-1.368,2.822-5.131,4.361a37.73,37.73,0,0,0-8.209,5.045c-1.967,1.625-3.762,2.822-3.933,2.651s1.026-2.223,2.651-4.617c5.558-7.61,8.123-13.852,9.834-23.344,1.539-8.38,6.926-30.27,8.294-33.69.428-1.026,3.933-2.651,10.6-4.874,16.76-5.644,26.764-11.544,36.256-21.548,24.285-25.567,18.3-57.633-13.767-73.623a111.558,111.558,0,0,0-23.686-7.867c-2.651-.428-3.249-.855-3.249-2.48,0-6.926-9.577-34.717-18.042-52.588-9.32-19.582-17.358-29.586-27.534-34.289-12.826-5.986-22.4-6.5-43.011-2.394l-13.767,2.736L172.1-378.843c-8.893-.6-20.009-1.112-24.8-1.112-8.038-.086-9.064.086-14.451,2.651-9.834,4.532-14.365,10.774-18.726,25.995-4.874,16.674-7.61,33.862-6.071,37.538.513,1.2.171,1.539-1.368,1.539-1.112,0-9.577.428-18.726.855-23.087,1.112-29.415,2.993-38.137,11.287-11.458,10.774-11.2,25.14.77,40.7,7.7,9.919,22.916,22.831,37.795,31.895l7.268,4.446L91.9-220.737c-6.328,4.019-9.919,10.6-10.176,18.726-.086,4.019.428,6.071,3.164,11.629l3.164,6.841-2.822-2.736c-3.762-3.677-6.841-4.7-13.51-4.7-4.019,0-7.525.77-12.655,2.565-10.432,3.848-18.47,5.387-26.251,5.131l-6.755-.257-2.565-9.834-2.565-9.834v-28.645L20.838-260.5l2.48-9.834c8.038-32.066,22.232-59.087,42.5-80.72,12.313-13.254,33.006-28.3,51.22-37.538,14.28-7.1,34.888-13.51,49.168-15.135C176.721-405.009,219.218-404.068,226.059-402.529Zm11.971,37.453c7.781,4.019,13.681,11.971,22.232,29.928,9.149,19.5,17.187,45.149,16.5,52.845a51.37,51.37,0,0,1-3.591,10.945c-3.762,8.38-4.1,12.228-1.283,15.221,2.052,2.138,6.413,2.736,9.235,1.283.77-.513,3.164-4.874,5.216-9.834,4.361-10.261,3.078-9.834,15.819-5.9,9.149,2.822,15.477,6.328,20.779,11.373,6.413,6.071,8.294,10.176,8.294,17.957,0,5.644-.428,7.268-3.249,13.083-7.525,16.076-25.14,26.935-52.075,32.408-8.807,1.8-11.886,1.967-33.6,1.881-22.318,0-24.712-.171-35.486-2.309C162.1-205,115.24-225.184,82.49-249.725c-9.834-7.439-20.693-18.812-23.771-24.969-4.1-7.952-2.993-12.313,4.275-16.931,5.473-3.42,8.807-4.1,23.344-4.789l12.484-.6.428,5.473c1.454,18.213,21.719,31.809,69.946,46.944,20.18,6.328,36.17,8.465,41.9,5.473,5.473-2.822,6.755-10.432,2.651-15.135-2.565-2.993-6.242-10-9.492-18.042-3.848-9.834-9.577-12.741-39.334-20.266-22.831-5.729-34.118-10.347-40.275-16.5-2.651-2.651-2.651-2.822-2.223-8.722.855-9.663,6.071-31.638,9.149-38.65a16.131,16.131,0,0,1,5.216-6.157c4.361-3.164,6.926-3.335,32.151-1.368,17.187,1.283,24.028.941,34.289-1.625,7.354-1.881,9.149-2.052,20.266-1.881C232.729-367.3,234.182-367.128,238.03-365.076ZM117.8-295.3c8.893,7.012,18.9,10.945,44.037,17.358,25.909,6.584,26.251,6.841,31.382,16.76,2.736,5.3,3.762,7.952,2.993,7.952-2.993,0-25.14-6.157-35.144-9.834-6.071-2.138-16.845-6.755-23.942-10.261-13-6.328-19.838-11.2-22.232-15.9-1.283-2.309-1.8-8.465-.77-8.465A20.4,20.4,0,0,1,117.8-295.3Z" transform="translate(0 0)"/>
    <path id="Path_197" data-name="Path 197" d="M244.754-348.982C238-348.3,231.5-346.5,231.5-345.39c0,.342,4.019.77,8.978.855,10.09.257,13.938,1.539,13.51,4.361-.171,1.2-1.881,2.565-4.96,4.19a37.519,37.519,0,0,0-5.473,3.164c-1.283,1.283,3.506,1.967,11.8,1.539,6.67-.342,8.722-.855,12.57-2.907,7.867-4.275,7.61-8.807-.77-12.4a33.244,33.244,0,0,0-8.123-2.052c-2.394-.342-5.216-.6-6.157-.77A55.173,55.173,0,0,0,244.754-348.982Z" transform="translate(-32.804 -10.194)"/>
    <path id="Path_198" data-name="Path 198" d="M155.919-332.3c-2.907,1.881-3.762,8.038-1.71,11.971,1.967,3.762,12.912,13.852,15.05,13.852a8.544,8.544,0,0,0,4.361-2.138c3.591-2.907,9.32-4.275,29.159-6.841a14.408,14.408,0,0,0,5.815-1.967c1.454-1.283,1.539-1.71.6-3.591-1.8-3.591-6.242-4.446-22.66-4.361-16.161.086-17.786-.257-23.6-4.96C159.6-332.988,157.715-333.5,155.919-332.3Z" transform="translate(-21.44 -12.592)"/>
    <path id="Path_199" data-name="Path 199" d="M260.966-102.415c-3.762,2.993-6.242,3.164-11.2.941-7.7-3.506-14.366-2.907-15.392,1.283-.684,2.822.77,4.361,5.045,5.3a78.616,78.616,0,0,1,8.722,3.078c6.841,2.907,8.38,2.822,12.484-1.026,3.933-3.506,6.242-7.952,5.473-10.518C265.412-105.579,264.728-105.408,260.966-102.415Z" transform="translate(-33.197 -45.64)"/>
  </g>
</svg>
